<?xml version="1.0" encoding="UTF-8"?>
<svg id="Layer_1" xmlns="http://www.w3.org/2000/svg" version="1.1" viewBox="0 0 355 355">
  <!-- Generator: Adobe Illustrator 29.8.1, SVG Export Plug-In . SVG Version: 2.1.1 Build 2)  -->
  <path d="M36.9,305.5c-.7-.2-1.9-1.5-.5-2.3,12.8-9.3,24.3-20.3,35.5-31.4l-39.4,26.6c-10.3,5.7-20.3,2.1-30.7-1.6-.9-.3-2.1-.1-1.8-1.3,13.6-4.6,26.5-13.1,38.1-21.5,4.3-3.1,14.6-13.3,18.8-14,6-1,14.4-.3,20.8-1.1,52.9-6.5,136.4-44.4,171.2-85.4.9-1.1,3.7-3.9,2.7-5.5-33.9,31.1-77.6,54.2-121,69.2s-65.8,17.8-97.9,12.7c8.9-6.2,18.6-11.3,27.8-17.3,11.6-7.5,30.5-23.7,41.5-28.6s12.5-2.4,18.4-4.4c6.5-2.2,14-7.3,18.9-12.1-1.1-1.3-3,1.1-4.5,1.9-10.4,5-23.2,6.1-34.6,5.4,32.1-24.5,61.1-56,98.9-72.2,21.3-9.2,56.7-12.7,75.4,3.5,26.7,23-8.8,58.9-27.8,73.7,19-7.6,37.7-20,47.8-38.2,4,6.9,1.7,15.3,1.8,22.7,12.1-12,19-28.2,17.8-45.5l5.9,11.8,1.8,15.5c5.6-10.1,5.7-20.8,3.7-31.9s-3.5-10.3-4-15.1c-1.3-10.8,0-25,10.8-30.4-1,5.8-2.2,11.8-1.8,17.7.8,13.2,8.1,26.7,9.1,40.1,3,40.5-34.4,66.5-64.1,86-8.8,5.7-19,9.6-26,17.7.7,1.4,2.2-.3,3-.6,4.9-2.1,9.3-5.3,14.3-7.1-4.7,12.2-15.2,21.5-5.9,34.5,6.1,8.5,14.1,3.2,22.7,3.7,21.8,1.2,16.8,25.5-.4,30,4-6.9,4.3-17.8-4.6-20,4.9,7.1.3,14.3-7.8,15.4-3.2.4-18.5-.3-20-2.7s.8-11.1.4-14c-1.9-14-19.2-25.8-28.9-34.8l10.8-25.8c-11.1,9.2-24.6,28-16.7,42.7,8,15,16.7-3.6,26.3,7.4s4.3,29.4-10.5,31.9c4.8-10.2,1.5-19.9-10.5-20.9-3,.2-2,0,0,1,7.1,3.8,11,13.3,1,15.3l-104.2-.9c12.8-12.8,30.3-10.6,46.8-12.8,13.6-1.8,27.1-4.1,40.6-6.3l-10-19.6c-9.7-2.3-19.4-1.1-29.1-.5l8.6-11.8,16.4-17.3-68.7,34.6c-.2,1.7,1.8.6,2.8.5,8.5-1.3,18.2-6.3,26.6-9s2.9-1.3,3.5-.2c-11,12.1-22.6,25-37.4,32.6-13.9,7.1-32.7,10.5-48.1,8.8-.4-1.7.6-1.8,1.5-2.6,7-6.3,14.1-12.7,19.8-20.2s2.5-1.7.9-2.7c-5.7,5.5-27.7,26.4-34.6,26.4s-17.1.9-20.9,0ZM226.7,169.9c-11.3,4.3-22.8,8.4-34.6,11.4-12.2,3.1-26.3,2.6-35.5,12.3,25-1.8,50.9-6.6,70.1-23.6ZM189.4,200c-4.7,1.3-9.4,2.8-14.2,3.5-17.8,2.7-30.7-.2-46.2,13l-14.2,6.2c21.3-1.4,42.2-6.4,61.6-15.3,4.3-2,9.7-4.3,13-7.4Z"/>
  <path d="M334.3,62.3c1.2,1.3,9.1,3.4,11.9,4.9,9.9,5.7,10.3,15.2,7,25.3-2.5.2-2.4-2.4-4.6-4-8.9-6.6-28.5-2.3-38.2,1.8s-12.5,8.7-15.2,9.3c-4.4,1-15.8-1-21.7-.8-18.9.7-37.4,6-55.9,9.1,4.8-5.5,9.3-11.2,13.1-17.4,11.2-18,12.2-34.9,34.9-42.5,15.8-5.3,49.3-7.1,62.6,4.4,4.1,3.5,4.3,7.8,6.2,9.8ZM284.5,62.6c-6.5-.9-14.7.6-21.4,0l13.7,4c4.2,2,6.8,7.1,10.6,9.4,10.3,6.3,27.2.4,30.3-11.7-5.4.9-9.5,7.6-15,7.3s-10.2-8.1-18.2-9.2Z"/>
</svg>